<?xml version="1.0" encoding="utf-8"?>
<!-- Generator: Adobe Illustrator 22.1.0, SVG Export Plug-In . SVG Version: 6.00 Build 0)  -->
<svg version="1.1" id="圖層_1" xmlns="http://www.w3.org/2000/svg" xmlns:xlink="http://www.w3.org/1999/xlink" x="0px" y="0px"
	 viewBox="0 0 75 75" style="enable-background:new 0 0 75 75;" xml:space="preserve">
<path d="M37.5,0C16.7,0,0,16.8,0,37.5S16.7,75,37.5,75S75,58.2,75,37.5S58.2,0,37.5,0z M41.7,64c-1.2,1.2-2.5,1.7-4.2,1.7
	s-3-0.7-4.2-1.7c-1.2-1-1.7-2.3-1.7-4.2c0-1.7,0.7-3,1.7-4.2c1.2-1.2,2.5-1.8,4.2-1.8s3,0.7,4.2,1.7c1.2,1.2,1.7,2.5,1.7,4.2
	S42.7,62.8,41.7,64z M51.8,33.7c-1.3,2-3,3.7-4.8,5.2c-1.5,1.3-3,2.7-4.3,3.8c-1,1-1.5,2.2-1.5,3.7v2.2c0,0.5-0.2,0.8-0.3,1.5
	c-0.7,1.3-2,2.2-3.5,2.2l0,0c-2,0-4-1.3-4-3.8v-2c0-1.8,0.3-3.7,1.2-5.2c0.7-1.2,1.7-2.3,2.8-3.8c1-1,2.2-2.2,3.3-3
	c1-0.8,2.2-1.7,2.8-2.7c0.8-0.8,1.5-1.8,2.2-2.8c0.5-0.8,0.8-2.2,0.8-3.5c0-2.5-0.8-4.7-2.5-6.3c-1.7-1.7-3.8-2.5-6.7-2.5
	c-2.7,0-4.8,0.8-6.7,2.3c-1.2,1-2,2.3-2.3,3.8c0,0.7,0,1.2-0.2,1.7C28,25.8,28,28,25.7,28.7c-0.3,0.2-0.7,0.2-0.8,0.2
	c-0.8,0-1.8-0.3-2.5-1.2c-1-1-1.7-2.8-1.7-4.2c0.2-3.7,2.3-7.7,5.7-10.3c3.2-2.3,6.8-3.7,11.2-3.7c2.2,0,4.3,0.3,6.3,1
	c2.2,0.8,3.8,1.8,5.3,3.2c1.5,1.3,2.8,3.2,3.8,5.2c1,2,1.3,4.2,1.3,6.8C54.2,28.7,53.5,31.5,51.8,33.7z"/>
</svg>
