<?xml version="1.0" encoding="utf-8"?>
<!-- Generator: Adobe Illustrator 22.1.0, SVG Export Plug-In . SVG Version: 6.00 Build 0)  -->
<svg version="1.1" id="圖層_1" xmlns="http://www.w3.org/2000/svg" xmlns:xlink="http://www.w3.org/1999/xlink" x="0px" y="0px"
	 viewBox="0 0 75 75" style="enable-background:new 0 0 75 75;" xml:space="preserve">
<style type="text/css">
	.st0{fill:none;stroke:#000000;stroke-width:3;stroke-miterlimit:10;}
</style>
<title>goal icon</title>
<g id="圖層_2_1_">
	<g id="圖層_1-2">
		<path class="st0" d="M73.1,69.1L57.4,42c-0.7-1.2-2.1-1.5-3.1-0.6c-0.2,0.2-0.4,0.4-0.5,0.6l-5.2,8.9l9.1,15.7
			c1.1,2,1.4,4.6,0.6,6.8h13c1.2,0,2.2-1.2,2.2-2.7C73.5,70.2,73.4,69.6,73.1,69.1z"/>
		<path class="st0" d="M26.3,50.9L21.2,42c-0.7-1.2-2.1-1.5-3.1-0.6c-0.2,0.2-0.4,0.4-0.5,0.6L1.9,69.1c-0.7,1.2-0.5,3,0.5,3.9
			c0.4,0.3,0.9,0.5,1.3,0.5h13c-0.8-2.3-0.5-4.8,0.6-6.8L26.3,50.9z"/>
		<path class="st0" d="M39.3,42C39.3,42,39.3,41.9,39.3,42l-0.1-17.7c0.7,0.3,1.5,0.4,2.3,0.4c1.9-0.1,3.8-0.7,5.5-1.6
			c2.1-0.9,4.2-1.9,6.4-1.4l0,0c0.8,0.2,1.6-0.6,1.7-1.6c0-0.1,0-0.1,0-0.2V5.1c0-0.9-0.5-1.6-1.2-1.8c-3-0.7-5.6,0.5-8,1.6
			c-2.5,1.1-4.6,2.1-6.8,0.8V3.8c0-1.1-0.6-2.1-1.5-2.3c-1-0.1-1.8,0.8-1.9,2c0,0,0,0.1,0,0.1v38.1l-0.1,0.1L20,69.1
			c-0.7,1.2-0.5,3,0.5,3.8c0.4,0.3,0.8,0.5,1.3,0.5h31.4c1.2,0,2.2-1.2,2.2-2.7c0-0.6-0.1-1.2-0.4-1.6L39.3,42z"/>
	</g>
</g>
</svg>
