<?xml version="1.0" encoding="utf-8"?>
<!-- Generator: Adobe Illustrator 22.1.0, SVG Export Plug-In . SVG Version: 6.00 Build 0)  -->
<svg version="1.1" id="Capa_1" xmlns="http://www.w3.org/2000/svg" xmlns:xlink="http://www.w3.org/1999/xlink" x="0px" y="0px"
	 viewBox="0 0 75 75" style="enable-background:new 0 0 75 75;" xml:space="preserve">
<g>
	<path d="M13.3,28.5c0-1.4,0.6-2.7,1.5-3.6c0.9-0.9,2.2-1.5,3.6-1.5c1.4,0,2.7,0.6,3.6,1.5c0.9,0.9,1.5,2.2,1.5,3.6
		c0,1.4,0.1,2.6,0.2,3.8h2.6c0.8,0,1.5-0.3,2-0.8c0.5-0.5,0.8-1.2,0.8-2v-4.2c0-0.6,0.5-1.1,1.1-1.1h4.1c0.8,0,1.5-0.3,2-0.8
		c0.5-0.5,0.8-1.2,0.8-2c0-0.8-0.3-1.5-0.8-2c-0.5-0.5-1.2-0.8-2-0.8h-4.1c-0.6,0-1.1-0.5-1.1-1.1v-4.2c0-0.8-0.3-1.5-0.8-2
		c-0.5-0.5-1.2-0.8-2-0.8h-4.1c-0.6,0-1.1-0.5-1.1-1.1V5.1c0-0.8-0.3-1.5-0.8-2c-0.5-0.5-1.2-0.8-2-0.8s-1.5,0.3-2,0.8
		c-0.5,0.5-0.8,1.2-0.8,2v4.2c0,0.6-0.5,1.1-1.1,1.1h-4.1c-0.8,0-1.5,0.3-2,0.8c-0.5,0.5-0.8,1.2-0.8,2v16.3c0,0.8,0.3,1.5,0.8,2
		c0.5,0.5,1.2,0.8,2,0.8h3.2L13.3,28.5z M61.7,40.5c0,0.6-0.5,1.1-1.1,1.1s-1.1-0.5-1.1-1.1v-7.1v-4.9c0-0.8-0.3-1.5-0.8-2
		c-0.5-0.5-1.2-0.9-2-0.9c-0.8,0-1.5,0.3-2,0.9c-0.5,0.5-0.8,1.2-0.8,2c0,3.5-0.5,6.5-1.1,9.9c-0.4,2.5-0.8,4.8-0.8,7.2
		c0,3,0.8,8.4,3.7,10.3c0.3,0.2,0.5,0.5,0.5,0.9l0,2.9h11.2c0.6-2.4,1.5-4.3,2.3-6.3c1.6-3.7,3.3-7.6,3.3-15.1
		c0-4.3-0.6-8.3-1.6-11.7c-0.6-2.1-1.4-4-2.4-5.5v8.3c0,1.4-0.6,2.7-1.5,3.6c-0.9,0.9-2.2,1.5-3.6,1.5h-2.1L61.7,40.5z M61.7,28.5
		v3.8h2.1c0.8,0,1.5-0.3,2-0.8c0.5-0.5,0.8-1.2,0.8-2V13.2c0-0.8-0.3-1.5-0.8-2c-0.5-0.5-1.2-0.8-2-0.8h-4.1c-0.6,0-1.1-0.5-1.1-1.1
		V5.1c0-0.8-0.3-1.5-0.8-2c-0.5-0.5-1.2-0.8-2-0.8c-0.8,0-1.5,0.3-2,0.8c-0.5,0.5-0.8,1.2-0.8,2v4.2c0,0.6-0.5,1.1-1.1,1.1h-4.1
		c-0.8,0-1.5,0.3-2,0.8c-0.5,0.5-0.8,1.2-0.8,2v3h3c1.4,0,2.7,0.6,3.6,1.5c0.9,0.9,1.5,2.2,1.5,3.6c0,1.4-0.6,2.7-1.5,3.6
		c-0.9,0.9-2.2,1.5-3.6,1.5h-3v3c0,0.8,0.3,1.5,0.8,2c0.5,0.5,1.2,0.8,2,0.8h3.8c0.1-1.2,0.2-2.5,0.2-3.8c0-1.4,0.6-2.7,1.5-3.6
		c0.9-0.9,2.2-1.5,3.6-1.5c1.4,0,2.7,0.6,3.6,1.5C61.1,25.8,61.7,27.1,61.7,28.5L61.7,28.5z M13.3,34.6h-3.2c-1.4,0-2.7-0.6-3.6-1.5
		C5.6,32.2,5,30.9,5,29.5v-6.2c-0.6,1.3-1.1,2.8-1.5,4.4c-0.8,3.1-1.3,6.8-1.3,10.7c0,7.4,1.7,11.3,3.3,15.1c0.9,2,1.7,3.9,2.3,6.3
		H19v-2.9c0-0.4,0.2-0.7,0.5-0.9c2.8-1.9,3.7-7.3,3.7-10.3c0-2.4-0.4-4.7-0.8-7.2c-0.6-3.4-1.1-6.4-1.1-9.9c0-0.8-0.3-1.5-0.8-2
		c-0.5-0.5-1.2-0.9-2-0.9c-0.8,0-1.5,0.3-2,0.9c-0.5,0.5-0.8,1.2-0.8,2v4.9v7.1c0,0.6-0.5,1.1-1.1,1.1c-0.6,0-1.1-0.5-1.1-1.1
		L13.3,34.6L13.3,34.6z M59,72.8c0.6,0,1.1,0.5,1.1,1.1S59.6,75,59,75H51c-0.6,0-1.1-0.5-1.1-1.1v-9.1c0-1.4,0.6-2.6,1.5-3.5
		c0.6-0.7,1.5-1.1,2.4-1.3v-2.5c-3.1-2.6-4.1-8-4.1-11.8c0-2.6,0.4-5,0.9-7.6c0.2-1.1,0.4-2.3,0.6-3.5h-3.5c-1.4,0-2.7-0.6-3.6-1.5
		c-0.9-0.9-1.5-2.2-1.5-3.6v-4.2c0-0.6,0.5-1.1,1.1-1.1h4.1c0.8,0,1.5-0.3,2-0.8c0.5-0.5,0.8-1.2,0.8-2c0-0.8-0.3-1.5-0.8-2
		c-0.5-0.5-1.2-0.8-2-0.8h-4.1c-0.6,0-1.1-0.5-1.1-1.1v-4.2c0-1.4,0.6-2.7,1.5-3.6c0.9-0.9,2.2-1.5,3.6-1.5h3v-3
		c0-1.4,0.6-2.7,1.5-3.6C53,0.6,54.3,0,55.7,0c1.4,0,2.7,0.6,3.6,1.5c0.9,0.9,1.5,2.2,1.5,3.6v3h3c1.4,0,2.7,0.6,3.6,1.5
		c0.9,0.9,1.5,2.2,1.5,3.6v4.3c1.8,2,3.4,4.9,4.5,8.5c1.1,3.6,1.7,7.8,1.7,12.4c0,7.9-1.8,12-3.5,16c-0.8,1.8-1.6,3.6-2.1,5.6
		c0.8,0.2,1.6,0.7,2.1,1.3c0.9,0.9,1.5,2.1,1.5,3.5v9.1c0,0.6-0.5,1.1-1.1,1.1h-7.9c-0.6,0-1.1-0.5-1.1-1.1c0-0.6,0.5-1.1,1.1-1.1
		h6.8v-8c0-0.8-0.3-1.4-0.8-1.9C69.4,62.3,68.8,62,68,62H54.9c-0.8,0-1.4,0.3-1.9,0.8c-0.5,0.5-0.8,1.2-0.8,1.9v8L59,72.8z M16,75
		c-0.6,0-1.1-0.5-1.1-1.1c0-0.6,0.5-1.1,1.1-1.1h6.8v-8c0-0.8-0.3-1.4-0.8-1.9c-0.5-0.5-1.2-0.8-1.9-0.8H7c-0.7,0-1.4,0.3-1.9,0.8
		c-0.5,0.5-0.8,1.2-0.8,1.9v8h6.8c0.6,0,1.1,0.5,1.1,1.1S11.7,75,11.1,75H3.2c-0.6,0-1.1-0.5-1.1-1.1v-9.1c0-1.4,0.6-2.6,1.4-3.5
		c0.6-0.6,1.3-1,2.1-1.3c-0.6-2.1-1.3-3.8-2.1-5.6c-1.7-4-3.5-8.1-3.5-16c0-4.1,0.5-7.9,1.4-11.3C2.2,23.8,3.5,21,5,18.9v-5.7
		c0-1.4,0.6-2.7,1.5-3.6c0.9-0.9,2.2-1.5,3.6-1.5h3v-3c0-1.4,0.6-2.7,1.5-3.6C15.5,0.6,16.8,0,18.2,0c1.4,0,2.7,0.6,3.6,1.5
		c0.9,0.9,1.5,2.2,1.5,3.6v3h3c1.4,0,2.7,0.6,3.6,1.5c0.9,0.9,1.5,2.2,1.5,3.6v3h3c1.4,0,2.7,0.6,3.6,1.5c0.9,0.9,1.5,2.2,1.5,3.6
		c0,1.4-0.6,2.7-1.5,3.6c-0.9,0.9-2.2,1.5-3.6,1.5h-3v3c0,1.4-0.6,2.7-1.5,3.6c-0.9,0.9-2.2,1.5-3.6,1.5h-2.3
		c0.2,1.2,0.4,2.4,0.6,3.5c0.4,2.6,0.9,5,0.9,7.6c0,3.8-1,9.2-4.1,11.8v2.5c0.9,0.2,1.7,0.7,2.4,1.3c0.9,0.9,1.4,2.1,1.4,3.5v9.1
		c0,0.6-0.5,1.1-1.1,1.1L16,75L16,75z"/>
</g>
</svg>
