<?xml version="1.0" encoding="utf-8"?>
<!-- Generator: Adobe Illustrator 22.1.0, SVG Export Plug-In . SVG Version: 6.00 Build 0)  -->
<svg version="1.1" id="圖層_1" xmlns="http://www.w3.org/2000/svg" xmlns:xlink="http://www.w3.org/1999/xlink" x="0px" y="0px"
	 viewBox="0 0 75 75" style="enable-background:new 0 0 75 75;" xml:space="preserve">
<title>map</title>
<g id="圖層_2_1_">
	<g id="圖層_1-2">
		<path d="M73.4,40.1h-5.2V11c0-0.8-0.6-1.5-1.4-1.5c0,0-0.1,0-0.1,0h-6.4v-8c0.1-0.8-0.6-1.5-1.4-1.6c-0.1,0-0.1,0-0.2,0H16.3
			c-0.8-0.1-1.5,0.6-1.6,1.4c0,0.1,0,0.1,0,0.2v18.9c-0.1,0.8,0.5,1.5,1.4,1.6c0.1,0,0.1,0,0.2,0h42.5c0.8,0,1.5-0.6,1.6-1.4
			c0-0.1,0-0.1,0-0.2v-7.8h4.9v15.6H8.8c-0.8,0-1.5,0.6-1.6,1.4c0,0.1,0,0.1,0,0.2v10.3H1.6c-0.8-0.1-1.5,0.6-1.6,1.4
			c0,0.1,0,0.2,0,0.2V52c-0.1,0.8,0.6,1.5,1.4,1.6c0.1,0,0.1,0,0.2,0h14.2c0.8,0.1,1.5-0.6,1.6-1.4c0-0.1,0-0.1,0-0.2v-3.6h6.4v5.8
			c-0.1,0.8,0.6,1.5,1.4,1.6c0.1,0,0.1,0,0.2,0h10.6V62H25.3c-0.8-0.1-1.5,0.6-1.6,1.4c0,0.1,0,0.1,0,0.2v9.8
			c-0.1,0.8,0.6,1.5,1.4,1.6c0.1,0,0.1,0,0.2,0h24.5c0.8,0.1,1.5-0.6,1.6-1.4c0-0.1,0-0.1,0-0.2v-10c0-0.8-0.6-1.5-1.4-1.6
			c-0.1,0-0.1,0-0.2,0H39.1v-6.2h10.6c0.8,0.1,1.5-0.6,1.6-1.4c0-0.1,0-0.1,0-0.2v-5.6h6.4V52c-0.1,0.8,0.6,1.5,1.4,1.6
			c0.1,0,0.1,0,0.2,0h14.2c0.8,0.1,1.5-0.6,1.6-1.4c0-0.1,0-0.1,0-0.2V41.7c0.1-0.8-0.5-1.5-1.3-1.6C73.6,40.1,73.5,40.1,73.4,40.1z
			 M57.2,18.9H17.8V3.1h39.3V18.9z M14.2,50.5H3.1v-7.2h11.1V50.5z M23.8,39.5v5.8h-6.4v-3.6c0.1-0.8-0.5-1.5-1.3-1.6
			c-0.1,0-0.2,0-0.2,0h-5.5v-8.9h25.9V38H25.3C24.5,38,23.8,38.7,23.8,39.5z M48.1,65v6.9H26.9V65H48.1z M48.1,52.7H26.9V41.1h21.4
			v11.5H48.1z M57.7,41.7v3.6h-6.4v-5.8c0.1-0.8-0.6-1.5-1.4-1.6c-0.1,0-0.1,0-0.2,0H39.2v-6.7h26V40h-6.1
			C58.2,40.1,57.6,40.9,57.7,41.7L57.7,41.7z M71.9,50.5H60.8v-7.2h11.1L71.9,50.5z"/>
	</g>
</g>
</svg>
