<?xml version="1.0" encoding="utf-8"?>
<!-- Generator: Adobe Illustrator 22.1.0, SVG Export Plug-In . SVG Version: 6.00 Build 0)  -->
<svg version="1.1" id="圖層_1" xmlns="http://www.w3.org/2000/svg" xmlns:xlink="http://www.w3.org/1999/xlink" x="0px" y="0px"
	 viewBox="0 0 75 75" style="enable-background:new 0 0 75 75;" xml:space="preserve">
<style type="text/css">
	.st0{fill:none;}
</style>
<title>design</title>
<g id="圖層_2_1_">
	<g id="圖層_1-2">
		<path d="M73.6,9.4c-0.4-0.3-1-0.3-1.5-0.1l-12,5.6c-4.2,2-7.1,6.1-7.4,10.7l-0.3,3.8l-3.8,6.3l-2.4,4v-4.4c0-0.1,0-0.3-0.1-0.4
			l-2.9-8.6l5.9-11.7c0.3-0.5,0.2-1.1-0.2-1.6L39.6,0.6C39-0.1,38-0.2,37.3,0.4c0,0,0,0,0,0l-0.2,0.2l-9.3,12.3
			c-0.4,0.5-0.4,1.1-0.1,1.6l5.9,11.7l-2.9,8.6c0,0.1-0.1,0.3-0.1,0.4v6.2l-9.7-14.5l0,0c-0.1-0.1-0.2-0.2-0.3-0.3l-0.1-0.1h-0.1
			l-5.7-3.3l-2.4-3.5l-3.5-5.2c-0.4-0.6-1.1-0.8-1.8-0.6L1,16c-0.8,0.3-1.2,1.1-1,1.9c0,0,0,0,0,0.1c0,0.1,0.1,0.2,0.2,0.3l4.3,6.4
			l2.4,3.5l0.8,6.5c0,0,0,0,0,0.1v0.1c0,0.2,0.1,0.3,0.2,0.5l0,0l23,34.4c0.1,0.1,0.2,0.2,0.3,0.3c1.1,2.9,4,4.9,7.2,4.9
			c0.6,0,1.3-0.1,1.9-0.2c2-0.5,3.7-1.7,4.8-3.5l16.8-27.6l3.8-6.3l3.3-2c4-2.5,6.3-6.9,6.1-11.5l-0.6-13.2
			C74.3,10.2,74.1,9.7,73.6,9.4z M62.4,36.8L60,40.7l-4-2.4L52,36l2.4-3.9l4,2.4L62.4,36.8z M33.7,60.1V36.8H43v7.9L33.7,60.1z
			 M36.4,27.7h4l2,6.1h-8.1L36.4,27.7z M38.4,16.9c-0.9,0-1.5-0.7-1.5-1.5c0-0.8,0.7-1.5,1.5-1.5c0.9,0,1.5,0.7,1.5,1.5c0,0,0,0,0,0
			C39.9,16.2,39.2,16.9,38.4,16.9L38.4,16.9z M38.4,4.1l7.5,9.9l-5.3,10.5h-0.6v-4.9c2.4-0.8,3.7-3.5,2.8-5.9
			c-0.9-2.4-3.5-3.6-5.9-2.8s-3.7,3.5-2.8,5.9c0.5,1.3,1.5,2.3,2.8,2.8v4.9h-0.6L30.8,14L38.4,4.1z M16.6,27.8l-0.5,0.3l-5.7,3.7
			l-0.5-4.3c0-0.2-0.1-0.5-0.2-0.7L8,24.3l2.6-1.7l1.7,2.6c0.1,0.2,0.3,0.4,0.5,0.5L16.6,27.8z M7,17.2L8.9,20l-2.6,1.7l-2.3-3.5
			L7,17.2z M15.3,32.4l3.9-2.5L30.6,47v16.8L11.3,35L15.3,32.4z M42.3,69.7c-1.3,2.2-4.2,2.9-6.4,1.6C33.7,70,33,67.2,34.3,65l0,0
			L46,45.7l0,0v-0.1l4.3-7l4,2.4l4,2.4L42.3,69.7z M70.4,29.5c-0.8,1.3-1.9,2.4-3.2,3.2l-2.8,1.7L60,31.8l-4.5-2.7l0.2-3.2
			c0.3-3.5,2.5-6.6,5.7-8.1l9.9-4.6l0.2,4.3c-0.2,0-0.3,0-0.5,0l-3.8,0.9c-3.5,0.8-6.2,3.6-7,7c-0.2,0.8,0.3,1.6,1.2,1.8
			c0.1,0,0.2,0,0.3,0c0.7,0,1.3-0.4,1.5-1.1c0.5-2.3,2.3-4.2,4.7-4.7l3.6-0.9l0.2,3.5C72,25.9,71.5,27.8,70.4,29.5z"/>
	</g>
</g>
<rect x="0" y="0" class="st0" width="75" height="75"/>
</svg>
