<?xml version="1.0" encoding="utf-8"?>
<!-- Generator: Adobe Illustrator 22.1.0, SVG Export Plug-In . SVG Version: 6.00 Build 0)  -->
<svg version="1.1" id="圖層_1" xmlns="http://www.w3.org/2000/svg" xmlns:xlink="http://www.w3.org/1999/xlink" x="0px" y="0px"
	 viewBox="0 0 75 75" style="enable-background:new 0 0 75 75;" xml:space="preserve">
<style type="text/css">
	.st0{fill:none;}
</style>
<title>research</title>
<g id="圖層_2_1_">
	<g id="圖層_1-2">
		<path d="M47,0C31.5,0,19,12.5,19,28c0,6.7,2.4,13.1,6.7,18.2l-3,3l-4.2-4.2l-16,16c-3.3,3.1-3.5,8.3-0.4,11.6
			c3.1,3.3,8.3,3.5,11.6,0.4c0.1-0.1,0.2-0.2,0.4-0.4l15.9-16l-4.2-4.2l3-3c11.7,10.1,29.4,8.7,39.5-3C72.6,41.2,75,34.7,75,28
			C75,12.5,62.5,0,47,0C47,0,47,0,47,0z M47,4.4C60,4.4,70.6,15,70.6,28c0,13-10.6,23.6-23.6,23.6c-13,0-23.6-10.6-23.6-23.6
			c0-6.3,2.5-12.3,6.9-16.7C34.7,6.9,40.7,4.4,47,4.4z M18.5,51.1l5.4,5.4L20.4,60L15,54.6L18.5,51.1z M11.9,57.7l5.4,5.4L11,69.3
			c-1.5,1.5-3.9,1.5-5.4,0c-1.5-1.5-1.5-3.9,0-5.4L11.9,57.7z"/>
		<path d="M47.4,24.3c-1.9,0.1-3.4,1.8-3.3,3.8s1.8,3.4,3.8,3.3c1.8-0.1,3.3-1.7,3.3-3.5l0,0C51.1,25.8,49.4,24.3,47.4,24.3z
			 M47.4,29.2c-0.7,0-1.3-0.7-1.3-1.4c0-0.7,0.7-1.3,1.4-1.3c0.7,0,1.3,0.6,1.3,1.3l0,0C48.8,28.6,48.2,29.2,47.4,29.2z"/>
		<path d="M61.3,27.9c-0.3,0-0.7,0-1,0.1l-0.2-0.2c0.4-0.5,0.8-1.1,1.2-1.7c2.1-3.2,2.5-6.1,1-8s-4.4-2.6-8.3-2h-0.1
			c0,0,0-0.1-0.1-0.1c-1.6-3.5-3.9-5.4-6.5-5.4h-0.5C45.3,9.4,43,9.5,41.6,11c-1.2,1.2-1.3,3.1-0.3,4.4c-0.1,0.3-0.3,0.5-0.4,0.8
			h-0.2c-3.9-0.7-6.9,0-8.3,2c-1.4,2-1.1,4.8,1,8c0.4,0.6,0.8,1.1,1.2,1.7L34.5,28c-2-0.4-3.9,0.8-4.4,2.7c-0.3,1.4,0.3,2.9,1.5,3.7
			c-0.1,1.1,0.2,2.2,0.9,3.2c1.1,1.5,3,2.2,5.6,2.2c0.9,0,1.8-0.1,2.7-0.3h0.2l0.1,0.1c1.6,3.4,3.9,5.3,6.5,5.3s4.8-2,6.5-5.4
			c0,0,0-0.1,0.1-0.1h0.2c0.9,0.2,1.8,0.2,2.7,0.3c2.6,0,4.5-0.8,5.6-2.2c0.6-0.9,0.9-1.9,0.9-3c1.7-0.9,2.3-3,1.5-4.6
			c0-0.1-0.1-0.2-0.1-0.2C63.9,28.5,62.7,27.9,61.3,27.9L61.3,27.9z M62.8,31.5c0,0.8-0.6,1.5-1.4,1.5c-0.8,0-1.5-0.6-1.5-1.4
			c0-0.8,0.6-1.5,1.4-1.5c0,0,0.1,0,0.1,0l0,0C62.1,30.1,62.7,30.7,62.8,31.5z M52.5,36.9c-0.9-0.2-1.7-0.5-2.5-0.8
			c0.8-0.4,1.6-0.9,2.4-1.4l0.9-0.6C53,35,52.8,36,52.5,36.9z M42.4,36.9c-0.3-0.9-0.6-1.9-0.8-2.8c0.3,0.2,0.6,0.4,0.9,0.6
			c0.8,0.5,1.6,1,2.4,1.4C44,36.4,43.2,36.7,42.4,36.9z M38.7,28.9c-0.3-0.3-0.7-0.7-1-1c0.3-0.3,0.7-0.7,1-1c0,0.3,0,0.7,0,1
			C38.7,28.2,38.6,28.5,38.7,28.9L38.7,28.9z M43.8,32.9c-0.9-0.6-1.8-1.2-2.6-1.9c-0.1-1-0.1-2.1-0.1-3.1s0.1-2.1,0.1-3.1
			c0.9-0.7,1.8-1.3,2.6-1.9c1.2-0.8,2.4-1.5,3.6-2.1c1.2,0.6,2.5,1.3,3.6,2.1c0.9,0.6,1.8,1.2,2.6,1.9c0.1,1,0.1,2.1,0.1,3.1
			S53.8,30,53.7,31c-0.8,0.7-1.8,1.3-2.6,1.9c-1.2,0.8-2.4,1.5-3.7,2.1C46.1,34.3,44.9,33.7,43.8,32.9L43.8,32.9z M42.4,18.8
			c0.8,0.2,1.7,0.5,2.5,0.8c-0.8,0.4-1.6,0.9-2.4,1.4l-0.9,0.6C41.8,20.7,42.1,19.7,42.4,18.8z M52.5,18.8c0.3,0.9,0.6,1.9,0.8,2.8
			L52.4,21c-0.8-0.5-1.6-1-2.4-1.4C50.8,19.3,51.7,19,52.5,18.8L52.5,18.8z M56.2,26.9c0.3,0.3,0.7,0.7,1,1c-0.3,0.3-0.6,0.7-1,1
			c0-0.3,0-0.7,0-1C56.2,27.5,56.2,27.2,56.2,26.9z M60.5,19.4c0.9,1.2,0.5,3.2-1.1,5.7c-0.2,0.4-0.5,0.7-0.7,1.1
			c-0.9-0.9-1.8-1.7-2.7-2.5c-0.2-1.8-0.6-3.6-1.2-5.3C57.6,17.9,59.7,18.3,60.5,19.4z M44.4,12c0.7,0,1.3,0.7,1.3,1.4
			s-0.7,1.3-1.4,1.3c-0.7,0-1.3-0.6-1.3-1.3C43,12.6,43.6,12,44.4,12z M43.2,16.7c1.9,0.7,4-0.3,4.8-2.2c0.2-0.5,0.2-1,0.2-1.5
			c1.2,0.4,2.5,1.7,3.5,3.7c-1.4,0.4-2.9,0.9-4.2,1.6C46,17.7,44.6,17.2,43.2,16.7L43.2,16.7z M35.4,25.1c-1.6-2.4-2-4.5-1.1-5.7
			c0.9-1.2,2.9-1.6,5.7-1.1c-0.6,1.7-1,3.5-1.2,5.3c-0.9,0.8-1.9,1.6-2.7,2.5C35.9,25.8,35.6,25.4,35.4,25.1z M33.7,30.1
			c0.7,0,1.3,0.7,1.3,1.4c0,0.7-0.7,1.3-1.4,1.3c-0.7,0-1.3-0.6-1.3-1.3l0,0C32.3,30.7,32.9,30.1,33.7,30.1
			C33.7,30.1,33.7,30.1,33.7,30.1L33.7,30.1z M34.3,36.3c-0.3-0.4-0.4-0.8-0.4-1.3c2,0,3.6-1.7,3.6-3.7c0,0,0,0,0,0
			c0-0.2,0-0.3-0.1-0.5c0.5,0.4,1,0.9,1.5,1.3c0.2,1.8,0.6,3.6,1.2,5.3C37.2,37.9,35.2,37.5,34.3,36.3L34.3,36.3z M47.4,42.8
			c-1.5,0-3-1.4-4.2-3.8c1.4-0.4,2.9-0.9,4.2-1.6c1.4,0.6,2.8,1.1,4.2,1.6C50.4,41.4,48.8,42.8,47.4,42.8z M54.7,37.4
			c0.6-1.7,1-3.5,1.2-5.3c0.6-0.5,1.2-1,1.8-1.6c-0.5,1.9,0.6,3.8,2.4,4.3c0.1,0,0.1,0,0.2,0.1c0.2,0.1,0.4,0.1,0.6,0.1
			c0,0.5-0.2,0.9-0.4,1.3C59.6,37.5,57.5,37.9,54.7,37.4L54.7,37.4z"/>
	</g>
</g>
<rect x="0.1" y="0.1" class="st0" width="74.8" height="74.8"/>
</svg>
