<?xml version="1.0" encoding="utf-8"?>
<!-- Generator: Adobe Illustrator 22.1.0, SVG Export Plug-In . SVG Version: 6.00 Build 0)  -->
<svg version="1.1" id="圖層_1" xmlns="http://www.w3.org/2000/svg" xmlns:xlink="http://www.w3.org/1999/xlink" x="0px" y="0px"
	 viewBox="0 0 75 75" style="enable-background:new 0 0 75 75;" xml:space="preserve">
<style type="text/css">
	.st0{fill:none;}
</style>
<title>takeaway</title>
<g id="圖層_2_1_">
	<g id="圖層_1-2">
		<path d="M51.5,19.9c-4.2-3.6-9.6-5.5-15.1-5.2c-10.7,0.6-19.1,8.8-19.3,18.7c0,5,2,9.8,5.6,13.3c3.3,3,5.1,7.3,5.2,11.7v0.9
			c0,0.1,0,0.3,0,0.4c0.1,0.2,0.1,0.4,0.3,0.6l0,0c0,0.1,0.1,0.1,0.2,0.2l0.1,0.1c0.1,0,0.1,0.1,0.2,0.1l0.1,0.1l0.2,0.1l0.1,0.1
			l0.2,0h0.2h0.2h0.1c0.1,0,0.3,0,0.4,0l15.6-3.2l0,0l0.2-0.1h0.1l0.2-0.1l0.1-0.1l0.1-0.1c0,0,0.1-0.1,0.1-0.1c0,0,0.1-0.1,0.1-0.1
			c0,0,0.1-0.1,0.1-0.1c0-0.1,0.1-0.1,0.1-0.2c0,0,0-0.1,0.1-0.1l0.1-0.2c0-0.1,0-0.1,0-0.2c0,0,0,0,0-0.1c0.6-3.7,2.4-7.1,5.2-9.6
			c7.3-6.8,7.7-18.2,0.9-25.4C52.6,20.8,52.1,20.3,51.5,19.9L51.5,19.9z M49.6,44.5c-2.9,2.8-4.9,6.4-5.7,10.3l-12.3,2.5
			c-0.4-4.9-2.6-9.5-6.2-12.9c-3-2.8-4.7-6.8-4.6-10.9c0.1-8.2,7.1-15,15.9-15.4c4.6-0.3,9.1,1.2,12.5,4.3c6.3,5.3,7,14.6,1.8,20.9
			C50.5,43.6,50.1,44.1,49.6,44.5L49.6,44.5z"/>
		<path d="M45,59.3l-15.7,3.2c-0.9,0.1-1.5,1-1.4,1.9c0,0,0,0.1,0,0.1c0.3,0.9,1.2,1.5,2.1,1.3l15.7-3.2c0.9-0.2,1.5-1,1.4-1.9
			c0,0,0,0,0-0.1C46.8,59.7,45.9,59.1,45,59.3z"/>
		<path d="M47.2,65.4c-0.2-0.9-1.2-1.5-2.1-1.3l-15.7,3.2c-0.9,0.2-1.5,1-1.4,1.9c0,0,0,0,0,0.1c0.2,0.8,0.9,1.3,1.7,1.3
			c0.1,0,0.3,0,0.4,0l15.7-3.2C46.7,67.2,47.3,66.3,47.2,65.4C47.2,65.4,47.2,65.4,47.2,65.4z"/>
		<path d="M43.6,70c0.1-0.7-0.4-1.3-1.1-1.4c0,0,0,0,0,0c-0.7-0.1-1.4,0.4-1.5,1.1c-0.3,1.7-1.8,2.8-3.4,2.8c-0.9,0-1.8-0.3-2.5-0.9
			c-0.2-0.2-0.3-0.3-0.5-0.5c-0.4-0.6-1.2-0.8-1.8-0.4c-0.6,0.3-0.8,1.1-0.5,1.6c0,0,0,0,0,0.1c0.3,0.4,0.6,0.7,0.9,1
			c1.2,1.1,2.8,1.7,4.4,1.7C40.5,75,43.1,72.9,43.6,70z"/>
		<path d="M1.4,34.2h8.4c0.7,0.1,1.3-0.5,1.4-1.1s-0.5-1.3-1.1-1.4c-0.1,0-0.1,0-0.2,0H1.4c-0.7-0.1-1.3,0.5-1.4,1.1
			s0.5,1.3,1.1,1.4C1.3,34.2,1.3,34.2,1.4,34.2z"/>
		<path d="M73.6,31.7h-8.4c-0.7-0.1-1.3,0.5-1.4,1.1c-0.1,0.7,0.5,1.3,1.1,1.4c0.1,0,0.1,0,0.2,0h8.4c0.7,0.1,1.3-0.5,1.4-1.1
			c0.1-0.7-0.5-1.3-1.1-1.4C73.7,31.7,73.7,31.7,73.6,31.7z"/>
		<path d="M36.2,1.3v7.8c0,0.7,0.6,1.3,1.3,1.3s1.3-0.6,1.3-1.3V1.3c0-0.7-0.6-1.3-1.3-1.3S36.2,0.5,36.2,1.3z"/>
		<path d="M64.6,8.7c-0.5-0.5-1.4-0.5-1.9,0l-5.9,5.5c-0.5,0.4-0.5,1.2-0.1,1.7c0,0,0.1,0.1,0.1,0.1c0.3,0.2,0.6,0.4,0.9,0.4
			c0.4,0,0.7-0.1,1-0.4l5.9-5.5C65.1,10,65.1,9.3,64.6,8.7C64.6,8.7,64.6,8.7,64.6,8.7z"/>
		<path d="M13.4,56.6c0.4,0,0.7-0.1,0.9-0.4l5.9-5.5c0.5-0.4,0.5-1.2,0.1-1.7c0,0-0.1-0.1-0.1-0.1c-0.5-0.5-1.4-0.5-1.9,0l-5.9,5.5
			c-0.5,0.4-0.5,1.2-0.1,1.7c0,0,0.1,0.1,0.1,0.1C12.7,56.5,13,56.6,13.4,56.6z"/>
		<path d="M10.4,10.5l5.9,5.5c0.3,0.2,0.6,0.4,0.9,0.4c0.4,0,0.7-0.1,0.9-0.4c0.5-0.4,0.5-1.2,0.1-1.7c0,0-0.1-0.1-0.1-0.1l-5.9-5.5
			c-0.5-0.5-1.4-0.5-1.9,0c-0.5,0.4-0.6,1.1-0.2,1.6C10.3,10.4,10.3,10.4,10.4,10.5z"/>
		<path d="M62.6,54.5L56.7,49c-0.5-0.5-1.4-0.5-1.9,0c-0.5,0.4-0.5,1.2-0.1,1.7c0,0,0.1,0.1,0.1,0.1l5.9,5.5
			c0.3,0.2,0.6,0.4,0.9,0.4c0.4,0,0.7-0.1,0.9-0.4c0.5-0.4,0.5-1.2,0.1-1.7C62.6,54.6,62.6,54.6,62.6,54.5z"/>
		<path d="M37.5,22.6c1.4,0,2.8,0.2,4.1,0.7c0.1,0.1,0.3,0.1,0.5,0.1c0.5,0,1-0.3,1.3-0.8c0.2-0.6-0.1-1.3-0.7-1.6c0,0,0,0-0.1,0
			c-1.6-0.6-3.3-0.8-5-0.8c-0.7-0.1-1.3,0.5-1.4,1.1c-0.1,0.7,0.5,1.3,1.1,1.4C37.4,22.6,37.4,22.6,37.5,22.6z"/>
		<path d="M47.1,23.5c-0.6-0.5-1.4-0.4-1.9,0.1c-0.5,0.5-0.5,1.2,0,1.7c0,0,0.1,0.1,0.1,0.1c1.9,1.5,3.2,3.6,3.8,6
			c0.2,0.6,0.7,1,1.3,1c0.1,0,0.2,0,0.3,0c0.7-0.1,1.1-0.7,1-1.4c0,0,0,0,0-0.1C51.1,28,49.5,25.4,47.1,23.5z"/>
		<path d="M45.9,34.6h-1.3V36h0.7v1.3c0,2.2-1.8,4-4,4h-2.8c-0.1-0.9-0.5-1.8-1.1-2.5c0.5-1.7,2.1-2.9,3.9-2.9h2v-1.3h-2
			c-2.2,0-4.2,1.3-5,3.3c-0.7-0.4-1.6-0.7-2.4-0.7h-4c-0.4,0-0.7,0.3-0.7,0.7v1.3c0,2.6,2.1,4.7,4.7,4.7h3.4v7.4h-2v1.3h5.4v-1.3h-2
			v-8.7h2.7c3,0,5.4-2.4,5.4-5.4v-2C46.6,34.9,46.3,34.6,45.9,34.6z M37.2,42.7h-3.4c-1.9,0-3.4-1.5-3.4-3.4v-0.7h3.4
			c1.9,0,3.4,1.5,3.4,3.4L37.2,42.7z"/>
	</g>
</g>
<rect x="0.1" class="st0" width="75" height="75"/>
</svg>
