<?xml version="1.0" encoding="utf-8"?>
<!-- Generator: Adobe Illustrator 22.1.0, SVG Export Plug-In . SVG Version: 6.00 Build 0)  -->
<svg version="1.1" id="圖層_1" xmlns="http://www.w3.org/2000/svg" xmlns:xlink="http://www.w3.org/1999/xlink" x="0px" y="0px"
	 viewBox="0 0 75 75" style="enable-background:new 0 0 75 75;" xml:space="preserve">
<style type="text/css">
	.st0{fill:none;}
</style>
<title>persona2</title>
<g id="圖層_2_1_">
	<g id="圖層_1-2">
		<path d="M37.5,23.7c-3.7,0-6.6,3-6.6,6.6c0,3.7,3,6.6,6.6,6.6c3.7,0,6.6-3,6.6-6.6c0,0,0,0,0,0l0,0C44.1,26.7,41.1,23.7,37.5,23.7
			C37.5,23.7,37.5,23.7,37.5,23.7z M37.5,34.6c-2.3,0-4.2-1.9-4.2-4.2c0-2.3,1.9-4.2,4.2-4.2c2.3,0,4.2,1.9,4.2,4.2c0,0,0,0,0,0l0,0
			C41.6,32.6,39.8,34.5,37.5,34.6L37.5,34.6z"/>
		<path d="M70,32.5c-2.3,0-4.3,1.6-4.8,3.8h-8.1c-0.6-9.9-8.5-17.8-18.3-18.5v-8c2.7-0.7,4.3-3.4,3.6-6c-0.7-2.7-3.4-4.3-6-3.6
			s-4.3,3.4-3.6,6c0.4,1.8,1.8,3.2,3.6,3.6v8c-4.4,0.3-8.6,2-11.9,4.9L18.8,17c1.4-2.4,0.7-5.5-1.7-6.9s-5.5-0.7-6.9,1.7
			s-0.7,5.5,1.7,6.9c1.6,1,3.6,1,5.2,0l5.6,5.7c-2.9,3.3-4.7,7.5-4.9,11.9H9.8c-0.7-2.7-3.4-4.3-6-3.6s-4.3,3.4-3.6,6s3.4,4.3,6,3.6
			c1.8-0.4,3.2-1.8,3.6-3.6h8c0.6,9.9,8.6,17.8,18.5,18.4v8.1c-2.7,0.7-4.3,3.4-3.6,6c0.7,2.7,3.4,4.3,6,3.6c2.7-0.7,4.3-3.4,3.6-6
			c-0.4-1.8-1.8-3.2-3.6-3.6v-8.1c4.4-0.3,8.5-2,11.8-4.9l5.7,5.7c-1.2,2-0.9,4.5,0.7,6.1l0,0c1.9,2,5.1,2,7,0.1c2-1.9,2-5.1,0.1-7
			c-1.6-1.6-4.1-2-6.1-0.8l-5.7-5.7c2.9-3.3,4.6-7.4,4.9-11.8h8.1c0.7,2.7,3.4,4.3,6,3.6c2.7-0.7,4.3-3.4,3.6-6
			C74.3,34.1,72.3,32.5,70,32.5L70,32.5z M34.9,5c0-1.4,1.2-2.6,2.6-2.6c1.4,0,2.6,1.2,2.6,2.6S39,7.6,37.5,7.6
			C36.1,7.6,34.9,6.4,34.9,5z M12.7,16.3c-1-1-1-2.6,0-3.6l0,0c1-1,2.6-1,3.6,0l0,0c1.1,0.9,1.4,2.5,0.5,3.6
			c-0.9,1.1-2.5,1.4-3.6,0.5C13,16.6,12.9,16.5,12.7,16.3L12.7,16.3z M5,40c-1.2,0-2.2-1-2.2-2.2c0-1.2,1-2.2,2.2-2.2
			c1.2,0,2.2,1,2.2,2.2C7.2,39.1,6.2,40,5,40L5,40z M43.6,53.6c-3.9,1.5-8.2,1.5-12.1,0.1l-2-12.2l8.2-0.8l7.9,0.8L43.6,53.6z
			 M40.1,70c0,1.4-1.2,2.6-2.6,2.6c-1.4,0-2.6-1.2-2.6-2.6c0-1.4,1.2-2.6,2.6-2.6C38.9,67.4,40.1,68.5,40.1,70z M62.3,58.7
			c1,1,1,2.6,0,3.6l0,0c-1,1-2.6,1-3.6,0l0,0c-0.9-1.1-0.6-2.8,0.5-3.6C60.1,58,61.4,58,62.3,58.7L62.3,58.7z M46.2,52.3l1.9-11.7
			c0.1-0.7-0.3-1.3-1-1.4c0,0,0,0,0,0h-0.1l-9.3-1h-0.2L28,39.2c-0.3,0-0.7,0.2-0.9,0.5c-0.2,0.3-0.3,0.6-0.2,1l2,11.8
			c-8.3-4.8-11.1-15.3-6.3-23.6c0,0,0,0,0,0c0.7-1.3,1.7-2.5,2.7-3.6l0,0c6.8-6.7,17.7-6.6,24.4,0.2s6.6,17.7-0.2,24.4
			C48.5,50.8,47.4,51.7,46.2,52.3L46.2,52.3z M70,40c-1.4,0-2.6-1.2-2.6-2.6c0-1.4,1.2-2.6,2.6-2.6s2.6,1.2,2.6,2.6
			C72.6,38.9,71.4,40,70,40z"/>
	</g>
</g>
<rect x="0" y="0" class="st0" width="75" height="75"/>
</svg>
