<?xml version="1.0" encoding="utf-8"?>
<!-- Generator: Adobe Illustrator 22.1.0, SVG Export Plug-In . SVG Version: 6.00 Build 0)  -->
<svg width="1920" version="1.1" id="圖層_1" xmlns="http://www.w3.org/2000/svg" xmlns:xlink="http://www.w3.org/1999/xlink" x="0px" y="0px"
	 viewBox="0 0 1920 145.7" style="enable-background:new 0 0 1920 145.7;" xml:space="preserve">
<style type="text/css">
	.st0{fill:#FFFFFF;}
</style>
<path class="st0" d="M708.5,25.4c80.2,6.9,136.5,30.1,337.8,64.8c2.4,0.4,4.3,0.7,5.6,1c157.2,20.2,290.8,17.4,390.4,9.3
	c34.4-2.8,162.2-14.3,325.2-55.6c62.2-15.8,114.2-32,152.6-44.9c0,48.6,0,97.1,0,145.7c-640,0-1280,0-1920,0c0-37.1,0-74.1,0-111.2
	c208.8,55.4,325.2,50.7,505.7,11.1C592.4,21.8,661.4,21.4,708.5,25.4z"/>
</svg>
